<?xml version="1.0" standalone="no"?>
<svg viewBox="0 0 200 200" xmlns="http://www.w3.org/2000/svg">
  <path fill="#A7F0BA" d="M32.8,-48.1C45.6,-42.8,61.3,-39,67,-29.6C72.7,-20.3,68.5,-5.6,62,5.8C55.6,17.2,46.8,25.1,40.8,39.5C34.8,54,31.5,75,23,76.7C14.5,78.5,0.8,61.1,-8.9,49.5C-18.7,38,-24.6,32.2,-32.4,26.3C-40.3,20.5,-50.1,14.5,-50.5,7.6C-50.9,0.7,-41.9,-7.1,-34.3,-12.3C-26.7,-17.5,-20.6,-20.1,-15.2,-28.8C-9.7,-37.5,-4.8,-52.3,2.6,-56.3C10,-60.3,20,-53.5,32.8,-48.1Z" transform="translate(100 100)" />
</svg>
